<?xml version="1.0" encoding="UTF-8" standalone="no"?>
<svg
   xmlns:dc="http://purl.org/dc/elements/1.1/"
   xmlns:cc="http://creativecommons.org/ns#"
   xmlns:rdf="http://www.w3.org/1999/02/22-rdf-syntax-ns#"
   xmlns:svg="http://www.w3.org/2000/svg"
   xmlns="http://www.w3.org/2000/svg"
   version="1.1"
   id="svg4147"
   viewBox="0 0 15.999998 16"
   height="16"
   width="16">
  <defs
     id="defs4149" />
  <metadata
     id="metadata4152">
    <rdf:RDF>
      <cc:Work
         rdf:about="">
        <dc:format>image/svg+xml</dc:format>
        <dc:type
           rdf:resource="http://purl.org/dc/dcmitype/StillImage" />
        <dc:title></dc:title>
      </cc:Work>
    </rdf:RDF>
  </metadata>
  <g
     transform="translate(-249.64286,-349.57649)"
     id="layer1">
    <path
       id="rect8077"
       d="m 261.39286,350.07649 0,6.00403 0.47424,0.47425 -0.34058,0.34057 2.00684,2.00684 -0.20874,0.62622 c -0.17355,0.52066 -0.41899,1.01827 -0.7251,1.48681 -0.30782,0.48 -0.71058,0.95864 -1.20666,1.45752 l 0,2.60376 3.75,0 0,-15 -3.75,0 z m -5.625,1.26526 0,2.17346 c 0.34849,-0.0887 0.7047,-0.13774 1.0675,-0.13366 0.95514,0.0107 1.8657,0.3524 2.6825,0.94116 l 0,-2.98096 -3.75,0 z m -5.625,1.92444 0,11.8103 3.75,0 0,-2.34375 c -0.0781,-0.0719 -0.15816,-0.13985 -0.23438,-0.21606 -1.13929,-1.13929 -1.84115,-2.43165 -1.90246,-3.81408 l 0,-0.002 c -0.0607,-1.37595 0.5327,-2.68973 1.58386,-3.74085 0.1753,-0.1753 0.36518,-0.3213 0.55298,-0.47058 l 0,-1.22314 -3.75,0 z m 6.67968,1.18287 c -0.96339,-0.0108 -1.87313,0.41194 -2.72827,1.26708 -0.89487,0.89484 -1.31769,1.87442 -1.27075,2.93885 0.0469,1.0572 0.57728,2.09156 1.59119,3.10547 0.98503,0.98502 2.0194,1.47199 3.10547,1.46118 1.08606,-0.0108 2.1166,-0.50162 3.09082,-1.47583 0.47267,-0.47268 0.83695,-0.91052 1.09314,-1.31104 0.25978,-0.3969 0.46175,-0.81213 0.60608,-1.24511 l -1.27625,-1.27625 c -0.18762,0.51958 -0.40655,0.98011 -0.65552,1.38062 -0.24896,0.40051 -0.55476,0.78181 -0.91919,1.14623 -0.46907,0.46921 -0.96546,0.70138 -1.48864,0.69763 -0.52319,-0.004 -1.02901,-0.23012 -1.51612,-0.68115 l 3.90198,-3.90197 -0.80017,-0.80201 c -0.85876,-0.85876 -1.77038,-1.29289 -2.73377,-1.3037 z m -0.37353,1.93175 c 0.42576,0.0144 0.84665,0.22207 1.2616,0.62257 l -2.31629,2.31628 c -0.37889,-0.43659 -0.57896,-0.86319 -0.60058,-1.28174 -0.0253,-0.42216 0.13706,-0.80906 0.48706,-1.15906 0.34999,-0.35002 0.73883,-0.5161 1.16821,-0.49805 z m 3.06885,7.44325 c -0.63285,0.295 -1.30001,0.46006 -1.9867,0.46691 -0.60607,0.006 -1.19601,-0.11959 -1.7633,-0.34607 l 0,1.13159 3.75,0 0,-1.25243 z"
       style="opacity:1;fill:#000000;fill-opacity:1" />
  </g>
</svg>
